<svg width="50" height="50" viewBox="0 0 50 50" fill="none" xmlns="http://www.w3.org/2000/svg">
<circle cx="25" cy="25" r="24.5" fill="white"/>
<circle cx="25" cy="25" r="24.5" stroke="black"/>
<circle cx="25" cy="25" r="24.5" stroke="black" stroke-opacity="0.2"/>
<mask id="path-2-inside-1_1_112" fill="white">
<path fill-rule="evenodd" clip-rule="evenodd" d="M28.4615 9.61539H21.3942V21.3942H9.61538L9.61538 28.4615H21.3942V41.0257H28.4615V28.4615H41.0256V21.3942H28.4615V9.61539Z"/>
</mask>
<path fill-rule="evenodd" clip-rule="evenodd" d="M28.4615 9.61539H21.3942V21.3942H9.61538L9.61538 28.4615H21.3942V41.0257H28.4615V28.4615H41.0256V21.3942H28.4615V9.61539Z" fill="black"/>
<path d="M21.3942 9.61539V8.61539H20.3942V9.61539H21.3942ZM28.4615 9.61539H29.4615V8.61539H28.4615V9.61539ZM21.3942 21.3942V22.3942H22.3942V21.3942H21.3942ZM9.61538 21.3942V20.3942H8.61538L8.61538 21.3942L9.61538 21.3942ZM9.61538 28.4615L8.61538 28.4615L8.61538 29.4615H9.61538V28.4615ZM21.3942 28.4615H22.3942V27.4615H21.3942V28.4615ZM21.3942 41.0257H20.3942V42.0257H21.3942V41.0257ZM28.4615 41.0257V42.0257H29.4615V41.0257H28.4615ZM28.4615 28.4615V27.4615H27.4615V28.4615H28.4615ZM41.0256 28.4615V29.4615H42.0256V28.4615H41.0256ZM41.0256 21.3942H42.0256V20.3942H41.0256V21.3942ZM28.4615 21.3942H27.4615V22.3942H28.4615V21.3942ZM21.3942 10.6154H28.4615V8.61539H21.3942V10.6154ZM22.3942 21.3942V9.61539H20.3942V21.3942H22.3942ZM9.61538 22.3942H21.3942V20.3942H9.61538V22.3942ZM10.6154 28.4615L10.6154 21.3942L8.61538 21.3942L8.61538 28.4615L10.6154 28.4615ZM21.3942 27.4615H9.61538V29.4615H21.3942V27.4615ZM22.3942 41.0257V28.4615H20.3942V41.0257H22.3942ZM28.4615 40.0257H21.3942V42.0257H28.4615V40.0257ZM27.4615 28.4615V41.0257H29.4615V28.4615H27.4615ZM41.0256 27.4615H28.4615V29.4615H41.0256V27.4615ZM40.0256 21.3942V28.4615H42.0256V21.3942H40.0256ZM28.4615 22.3942H41.0256V20.3942H28.4615V22.3942ZM27.4615 9.61539V21.3942H29.4615V9.61539H27.4615Z" fill="black" mask="url(#path-2-inside-1_1_112)"/>
<path d="M21.3942 9.61539V8.61539H20.3942V9.61539H21.3942ZM28.4615 9.61539H29.4615V8.61539H28.4615V9.61539ZM21.3942 21.3942V22.3942H22.3942V21.3942H21.3942ZM9.61538 21.3942V20.3942H8.61538L8.61538 21.3942L9.61538 21.3942ZM9.61538 28.4615L8.61538 28.4615L8.61538 29.4615H9.61538V28.4615ZM21.3942 28.4615H22.3942V27.4615H21.3942V28.4615ZM21.3942 41.0257H20.3942V42.0257H21.3942V41.0257ZM28.4615 41.0257V42.0257H29.4615V41.0257H28.4615ZM28.4615 28.4615V27.4615H27.4615V28.4615H28.4615ZM41.0256 28.4615V29.4615H42.0256V28.4615H41.0256ZM41.0256 21.3942H42.0256V20.3942H41.0256V21.3942ZM28.4615 21.3942H27.4615V22.3942H28.4615V21.3942ZM21.3942 10.6154H28.4615V8.61539H21.3942V10.6154ZM22.3942 21.3942V9.61539H20.3942V21.3942H22.3942ZM9.61538 22.3942H21.3942V20.3942H9.61538V22.3942ZM10.6154 28.4615L10.6154 21.3942L8.61538 21.3942L8.61538 28.4615L10.6154 28.4615ZM21.3942 27.4615H9.61538V29.4615H21.3942V27.4615ZM22.3942 41.0257V28.4615H20.3942V41.0257H22.3942ZM28.4615 40.0257H21.3942V42.0257H28.4615V40.0257ZM27.4615 28.4615V41.0257H29.4615V28.4615H27.4615ZM41.0256 27.4615H28.4615V29.4615H41.0256V27.4615ZM40.0256 21.3942V28.4615H42.0256V21.3942H40.0256ZM28.4615 22.3942H41.0256V20.3942H28.4615V22.3942ZM27.4615 9.61539V21.3942H29.4615V9.61539H27.4615Z" fill="black" fill-opacity="0.2" mask="url(#path-2-inside-1_1_112)"/>
</svg>
